<svg id="Layer_1" data-name="Layer 1" xmlns="http://www.w3.org/2000/svg" viewBox="0 0 198.07 172.28"><defs><style>.cls-1{fill:#222220;}.cls-2{fill:#fdfdfd;}.cls-3{fill:#f9f9f9;}.cls-4{fill:#1d1d1b;}</style></defs><g id="EuodDm.tif"><path class="cls-1" d="M109.67,134.43H93.83c-1-1.84-3.07-1.52-4.66-2C68.24,125.81,55.93,111.22,51.23,90,47.3,72.33,54.54,57.75,65.63,45A105,105,0,0,0,82.1,18.6c1.09-2.45,1.64-4.66-.86-7.4-3.57-3.93-1-9.39,4.19-9.49q18.54-.34,37.1,0c5.11.1,6.77,3.41,4,7.74-2,3.14-2.11,6-1.12,9.42a46.72,46.72,0,0,0,3.89,9.62c4.29,7.76,10.39,14.14,15.76,21.07,20.73,26.8,11,66.19-19.74,80.21C120.21,132.1,114.72,132.4,109.67,134.43Zm9.23-12c1.63.25,2.9-.66,4.18-1.32,10.19-5.31,17.5-13.18,21.53-24.19,1.27-3.46,1.85-7.53-1.19-8.75-2.82-1.13-4.87,2.55-6.09,5.67a37.45,37.45,0,0,1-17.7,20,20,20,0,0,0-3.31,2.11c-1.32,1.09-2.31,2.46-1.41,4.33A3.5,3.5,0,0,0,118.9,122.42Z" transform="translate(-2.81 -0.43)"/><path class="cls-2" d="M109.67,134.43c5-2,10.54-2.33,15.61-4.65,30.71-14,40.47-53.41,19.74-80.21-5.37-6.93-11.47-13.31-15.76-21.07a46.72,46.72,0,0,1-3.89-9.62c-1-3.38-.92-6.28,1.12-9.42,2.81-4.33,1.15-7.64-4-7.74q-18.54-.36-37.1,0c-5.22.1-7.76,5.56-4.19,9.49,2.5,2.74,2,4.95.86,7.4A105,105,0,0,1,65.63,45C54.54,57.75,47.3,72.33,51.23,90c4.7,21.2,17,35.79,37.94,42.39,1.59.5,3.61.18,4.66,2H41.35q0-65.37-.09-130.74c0-2.9.74-3.26,3.36-3.26q55.65.15,111.28,0c2.62,0,3.37.35,3.36,3.25q-.18,65.39-.08,130.75Z" transform="translate(-2.81 -0.43)"/><path class="cls-3" d="M118.9,122.42a3.5,3.5,0,0,1-4-2.18c-.9-1.87.09-3.24,1.41-4.33a20,20,0,0,1,3.31-2.11,37.45,37.45,0,0,0,17.7-20c1.22-3.12,3.27-6.8,6.09-5.67,3,1.22,2.46,5.29,1.19,8.75-4,11-11.34,18.88-21.53,24.19C121.8,121.76,120.53,122.67,118.9,122.42Z" transform="translate(-2.81 -0.43)"/></g><path class="cls-4" d="M35.26,64.81a2.84,2.84,0,0,1-3,2.62H5.81a2.65,2.65,0,1,1,0-5.25H32.26A2.84,2.84,0,0,1,35.26,64.81Z" transform="translate(-2.81 -0.43)"/><path class="cls-4" d="M200.88,64.81a2.84,2.84,0,0,1-3,2.62H171.42a2.65,2.65,0,1,1,0-5.25h26.46A2.84,2.84,0,0,1,200.88,64.81Z" transform="translate(-2.81 -0.43)"/><path class="cls-4" d="M38.25,105.59a2.83,2.83,0,0,1-1.75,3.58L12.09,119.38a2.84,2.84,0,0,1-3.78-1.26,2.84,2.84,0,0,1,1.76-3.58l24.4-10.21A2.84,2.84,0,0,1,38.25,105.59Z" transform="translate(-2.81 -0.43)"/><path class="cls-4" d="M192.87,114a2.85,2.85,0,0,1-3.68,1.53l-25.08-8.42a2.65,2.65,0,1,1,1.67-5l25.08,8.41A2.85,2.85,0,0,1,192.87,114Z" transform="translate(-2.81 -0.43)"/><path class="cls-4" d="M164.35,157.36a2.85,2.85,0,0,1-4,0l-20-17.37a2.65,2.65,0,1,1,3.44-4l20,17.37A2.85,2.85,0,0,1,164.35,157.36Z" transform="translate(-2.81 -0.43)"/><path class="cls-4" d="M49.94,162.87a2.85,2.85,0,0,1-.51-4l14.7-22a2.65,2.65,0,1,1,4.37,2.91l-14.71,22A2.85,2.85,0,0,1,49.94,162.87Z" transform="translate(-2.81 -0.43)"/><path class="cls-4" d="M104,172.71a2.86,2.86,0,0,1-2.78-2.87l-1.35-26.42a2.65,2.65,0,1,1,5.24-.26l1.36,26.42A2.85,2.85,0,0,1,104,172.71Z" transform="translate(-2.81 -0.43)"/></svg>