<svg id="wheel" xmlns="http://www.w3.org/2000/svg" viewBox="0 0 568.8 567.1"><defs><style>.cls-1,.cls-2,.cls-3{fill:none;stroke-miterlimit:10;}.cls-1{stroke:#aa1916;}.cls-1,.cls-2{stroke-width:12px;}.cls-2{stroke:#161616;}.cls-3{stroke:#cdcccc;stroke-width:10px;}.cls-4{fill:#4a5761;}.cls-5{font-size:49px;fill:#cdcccc;font-family:AdobeArabic-Regular, Adobe Arabic;}</style></defs><circle class="cls-1" cx="277.7" cy="288.1" r="190.2"/><circle class="cls-1" cx="277.7" cy="288.1" r="37.2"/><line class="cls-2" x1="91.3" y1="120.3" x2="459.5" y2="441.4"/><line class="cls-2" x1="179.3" y1="505.9" x2="380.5" y2="60.8"/><line class="cls-2" x1="35.9" y1="331.7" x2="517.5" y2="249.8"/><path class="cls-3" d="M64.4,134.9h55.4a10,10,0,0,1,10,10v12.5a37.5,37.5,0,0,1-37.5,37.5h-.5a37.5,37.5,0,0,1-37.5-37.5V144.9a10,10,0,0,1,10-10Z" transform="translate(101 -30.4) rotate(38.7)"/><path class="cls-3" d="M40.7,349.5H96.1a10,10,0,0,1,10,10v12.5a37.5,37.5,0,0,1-37.5,37.5h-.5a37.5,37.5,0,0,1-37.5-37.5V359.5a10,10,0,0,1,10-10Z" transform="translate(-95.9 12) rotate(-11.4)"/><path class="cls-3" d="M203.7,507.4h55.4a10,10,0,0,1,10,10V530a37.5,37.5,0,0,1-37.5,37.5h-.5A37.5,37.5,0,0,1,193.7,530V517.4A10,10,0,0,1,203.7,507.4Z" transform="translate(-367.5 429) rotate(-56.9)"/><path class="cls-3" d="M481.5,400h55.4a10,10,0,0,1,10,10v12.5A37.5,37.5,0,0,1,509.4,460h-.5a37.5,37.5,0,0,1-37.5-37.5V410a10,10,0,0,1,10-10Z" transform="translate(396.6 1081.3) rotate(-122.4)"/><path class="cls-3" d="M524.7,201.1h55.4a10,10,0,0,1,10,10v12.5a37.5,37.5,0,0,1-37.5,37.5h-.5a37.5,37.5,0,0,1-37.5-37.5V211.1a10,10,0,0,1,10-10Z" transform="translate(867 717.3) rotate(-146.9)"/><path class="cls-3" d="M354.7,16.3h55.4a10,10,0,0,1,10,10V38.9a37.5,37.5,0,0,1-37.5,37.5h-.5a37.5,37.5,0,0,1-37.5-37.5V26.3a10,10,0,0,1,10-10Z" transform="translate(663.3 -200.3) rotate(135)"/><rect class="cls-4" x="215.8" y="267.2" width="168.4" height="50.24" transform="translate(-112.2 436.2) rotate(-65.7)"/><text class="cls-5" transform="translate(270.2 327.9) rotate(-65.7)">circus</text></svg>